<?xml version="1.0" encoding="UTF-8" standalone="no"?>
<!DOCTYPE svg PUBLIC "-//W3C//DTD SVG 1.1//EN"
 "http://www.w3.org/Graphics/SVG/1.1/DTD/svg11.dtd">
<!-- Generated by graphviz version 2.44.1 (20200629.0846)
 -->
<!-- Title: main Pages: 1 -->
<svg width="543pt" height="142pt"
 viewBox="0.00 0.00 543.00 142.00" xmlns="http://www.w3.org/2000/svg" xmlns:xlink="http://www.w3.org/1999/xlink">
<g id="graph0" class="graph" transform="scale(1 1) rotate(0) translate(4 138)">
<title>main</title>
<polygon fill="white" stroke="transparent" points="-4,4 -4,-138 539,-138 539,4 -4,4"/>
<!-- Node1 -->
<g id="node1" class="node">
<title>Node1</title>
<g id="a_node1"><a xlink:title=" ">
<polygon fill="#bfbfbf" stroke="black" points="0,-76.5 0,-95.5 38,-95.5 38,-76.5 0,-76.5"/>
<text text-anchor="middle" x="19" y="-83.5" font-family="Helvetica,sans-Serif" font-size="10.00">main</text>
</a>
</g>
</g>
<!-- Node2 -->
<g id="node2" class="node">
<title>Node2</title>
<g id="a_node2"><a target="_blank" xlink:href="http://en.cppreference.com/w/cpp/algorithm/max.html#" target="_top" xlink:title=" ">
<polygon fill="white" stroke="black" points="116.5,-95.5 116.5,-114.5 171.5,-114.5 171.5,-95.5 116.5,-95.5"/>
<text text-anchor="middle" x="144" y="-102.5" font-family="Helvetica,sans-Serif" font-size="10.00">std::max</text>
</a>
</g>
</g>
<!-- Node1&#45;&gt;Node2 -->
<g id="edge1" class="edge">
<title>Node1&#45;&gt;Node2</title>
<path fill="none" stroke="midnightblue" d="M38.15,-88.8C56,-91.56 83.76,-95.85 106.23,-99.32"/>
<polygon fill="midnightblue" stroke="midnightblue" points="105.71,-102.78 116.13,-100.85 106.78,-95.86 105.71,-102.78"/>
</g>
<!-- Node3 -->
<g id="node3" class="node">
<title>Node3</title>
<g id="a_node3"><a xlink:href="../../d2/d3b/namespaceqr__algorithm.html#ab1ac74497ffb2101040cc1efe3546de8" target="_top" xlink:title=" ">
<polygon fill="white" stroke="black" points="74,-57.5 74,-76.5 214,-76.5 214,-57.5 74,-57.5"/>
<text text-anchor="middle" x="144" y="-64.5" font-family="Helvetica,sans-Serif" font-size="10.00">qr_algorithm::qr_decompose</text>
</a>
</g>
</g>
<!-- Node1&#45;&gt;Node3 -->
<g id="edge2" class="edge">
<title>Node1&#45;&gt;Node3</title>
<path fill="none" stroke="midnightblue" d="M38.15,-83.2C47.32,-81.78 59.12,-79.96 71.47,-78.05"/>
<polygon fill="midnightblue" stroke="midnightblue" points="72.1,-81.49 81.45,-76.51 71.03,-74.58 72.1,-81.49"/>
</g>
<!-- Node4 -->
<g id="node4" class="node">
<title>Node4</title>
<g id="a_node4"><a xlink:href="../../df/d66/vector__cross__product_8cpp.html#a86cece59df22a931d4904acdace0d288" target="_top" xlink:title="Calculates the magnitude of the mathematical vector from it&#39;s direction ratios.">
<polygon fill="white" stroke="black" points="296,-114.5 296,-133.5 331,-133.5 331,-114.5 296,-114.5"/>
<text text-anchor="middle" x="313.5" y="-121.5" font-family="Helvetica,sans-Serif" font-size="10.00">mag</text>
</a>
</g>
</g>
<!-- Node3&#45;&gt;Node4 -->
<g id="edge3" class="edge">
<title>Node3&#45;&gt;Node4</title>
<path fill="none" stroke="midnightblue" d="M185.26,-76.5C194.81,-79.19 204.87,-82.39 214,-86 230.82,-92.66 233.27,-98.12 250,-105 261.56,-109.76 274.76,-113.94 286.04,-117.16"/>
<polygon fill="midnightblue" stroke="midnightblue" points="285.18,-120.56 295.75,-119.84 287.04,-113.81 285.18,-120.56"/>
</g>
<!-- Node5 -->
<g id="node5" class="node">
<title>Node5</title>
<g id="a_node5"><a xlink:href="../../d8/d77/namespacemachine__learning.html#a5305cc18d11943d3dc0d66e70d7e9c44" target="_top" xlink:title=" ">
<polygon fill="white" stroke="black" points="255,-76.5 255,-95.5 372,-95.5 372,-76.5 255,-76.5"/>
<text text-anchor="middle" x="313.5" y="-83.5" font-family="Helvetica,sans-Serif" font-size="10.00">machine_learning::sum</text>
</a>
</g>
</g>
<!-- Node3&#45;&gt;Node5 -->
<g id="edge4" class="edge">
<title>Node3&#45;&gt;Node5</title>
<path fill="none" stroke="midnightblue" d="M214.1,-74.84C224.23,-75.99 234.67,-77.17 244.78,-78.32"/>
<polygon fill="midnightblue" stroke="midnightblue" points="244.43,-81.8 254.76,-79.45 245.22,-74.85 244.43,-81.8"/>
</g>
<!-- Node6 -->
<g id="node6" class="node">
<title>Node6</title>
<g id="a_node6"><a xlink:href="../../d2/d3b/namespaceqr__algorithm.html#ad16da2183db22378435042f26af43d5f" target="_top" xlink:title=" ">
<polygon fill="white" stroke="black" points="250,-38.5 250,-57.5 377,-57.5 377,-38.5 250,-38.5"/>
<text text-anchor="middle" x="313.5" y="-45.5" font-family="Helvetica,sans-Serif" font-size="10.00">qr_algorithm::vector_mag</text>
</a>
</g>
</g>
<!-- Node3&#45;&gt;Node6 -->
<g id="edge5" class="edge">
<title>Node3&#45;&gt;Node6</title>
<path fill="none" stroke="midnightblue" d="M214.1,-59.16C222.49,-58.21 231.08,-57.24 239.53,-56.28"/>
<polygon fill="midnightblue" stroke="midnightblue" points="240.19,-59.72 249.74,-55.12 239.41,-52.77 240.19,-59.72"/>
</g>
<!-- Node9 -->
<g id="node9" class="node">
<title>Node9</title>
<g id="a_node9"><a xlink:href="../../d2/d3b/namespaceqr__algorithm.html#a5422c76bfa322620de611083bd518d71" target="_top" xlink:title=" ">
<polygon fill="white" stroke="black" points="251.5,-0.5 251.5,-19.5 375.5,-19.5 375.5,-0.5 251.5,-0.5"/>
<text text-anchor="middle" x="313.5" y="-7.5" font-family="Helvetica,sans-Serif" font-size="10.00">qr_algorithm::vector_proj</text>
</a>
</g>
</g>
<!-- Node3&#45;&gt;Node9 -->
<g id="edge8" class="edge">
<title>Node3&#45;&gt;Node9</title>
<path fill="none" stroke="midnightblue" d="M170.33,-57.41C191.52,-49.5 222.59,-38.12 250,-29 256.51,-26.84 263.43,-24.63 270.2,-22.53"/>
<polygon fill="midnightblue" stroke="midnightblue" points="271.42,-25.82 279.96,-19.54 269.37,-19.13 271.42,-25.82"/>
</g>
<!-- Node7 -->
<g id="node7" class="node">
<title>Node7</title>
<g id="a_node7"><a target="_blank" xlink:href="http://en.cppreference.com/w/cpp/numeric/math/sqrt.html#" target="_top" xlink:title=" ">
<polygon fill="white" stroke="black" points="447.5,-38.5 447.5,-57.5 500.5,-57.5 500.5,-38.5 447.5,-38.5"/>
<text text-anchor="middle" x="474" y="-45.5" font-family="Helvetica,sans-Serif" font-size="10.00">std::sqrt</text>
</a>
</g>
</g>
<!-- Node6&#45;&gt;Node7 -->
<g id="edge6" class="edge">
<title>Node6&#45;&gt;Node7</title>
<path fill="none" stroke="midnightblue" d="M377.14,-48C397.35,-48 419.07,-48 436.71,-48"/>
<polygon fill="midnightblue" stroke="midnightblue" points="437.12,-51.5 447.12,-48 437.12,-44.5 437.12,-51.5"/>
</g>
<!-- Node8 -->
<g id="node8" class="node">
<title>Node8</title>
<g id="a_node8"><a xlink:href="../../d2/d3b/namespaceqr__algorithm.html#a8ea313a1a1b5f9d0e3e332c29c6446ec" target="_top" xlink:title=" ">
<polygon fill="white" stroke="black" points="413,-0.5 413,-19.5 535,-19.5 535,-0.5 413,-0.5"/>
<text text-anchor="middle" x="474" y="-7.5" font-family="Helvetica,sans-Serif" font-size="10.00">qr_algorithm::vector_dot</text>
</a>
</g>
</g>
<!-- Node6&#45;&gt;Node8 -->
<g id="edge7" class="edge">
<title>Node6&#45;&gt;Node8</title>
<path fill="none" stroke="midnightblue" d="M354.5,-38.41C375.41,-33.4 401.21,-27.21 423.39,-21.89"/>
<polygon fill="midnightblue" stroke="midnightblue" points="424.38,-25.26 433.29,-19.52 422.75,-18.45 424.38,-25.26"/>
</g>
<!-- Node9&#45;&gt;Node8 -->
<g id="edge9" class="edge">
<title>Node9&#45;&gt;Node8</title>
<path fill="none" stroke="midnightblue" d="M375.78,-10C384.64,-10 393.82,-10 402.84,-10"/>
<polygon fill="midnightblue" stroke="midnightblue" points="402.93,-13.5 412.93,-10 402.93,-6.5 402.93,-13.5"/>
</g>
</g>
</svg>
