<?xml version="1.0" encoding="UTF-8" standalone="no"?>
<!DOCTYPE svg PUBLIC "-//W3C//DTD SVG 1.1//EN"
 "http://www.w3.org/Graphics/SVG/1.1/DTD/svg11.dtd">
<!-- Generated by graphviz version 2.44.1 (20200629.0846)
 -->
<!-- Title: qr_algorithm::eigen_values Pages: 1 -->
<svg width="604pt" height="142pt"
 viewBox="0.00 0.00 604.00 142.00" xmlns="http://www.w3.org/2000/svg" xmlns:xlink="http://www.w3.org/1999/xlink">
<g id="graph0" class="graph" transform="scale(1 1) rotate(0) translate(4 138)">
<title>qr_algorithm::eigen_values</title>
<polygon fill="white" stroke="transparent" points="-4,4 -4,-138 600,-138 600,4 -4,4"/>
<!-- Node1 -->
<g id="node1" class="node">
<title>Node1</title>
<g id="a_node1"><a xlink:title=" ">
<polygon fill="#bfbfbf" stroke="black" points="0,-71 0,-101 99,-101 99,-71 0,-71"/>
<text text-anchor="start" x="8" y="-89" font-family="Helvetica,sans-Serif" font-size="10.00">qr_algorithm::eigen</text>
<text text-anchor="middle" x="49.5" y="-78" font-family="Helvetica,sans-Serif" font-size="10.00">_values</text>
</a>
</g>
</g>
<!-- Node2 -->
<g id="node2" class="node">
<title>Node2</title>
<g id="a_node2"><a xlink:href="../../de/d75/qr__eigen__values_8cpp.html#a7558fd7779bf207157ced66f275951a0" target="_top" xlink:title=" ">
<polygon fill="white" stroke="black" points="178,-95.5 178,-114.5 232,-114.5 232,-95.5 178,-95.5"/>
<text text-anchor="middle" x="205" y="-102.5" font-family="Helvetica,sans-Serif" font-size="10.00">mat_mul</text>
</a>
</g>
</g>
<!-- Node1&#45;&gt;Node2 -->
<g id="edge1" class="edge">
<title>Node1&#45;&gt;Node2</title>
<path fill="none" stroke="midnightblue" d="M99.07,-92.01C121.21,-94.75 146.98,-97.94 167.44,-100.48"/>
<polygon fill="midnightblue" stroke="midnightblue" points="167.26,-103.98 177.61,-101.73 168.12,-97.03 167.26,-103.98"/>
</g>
<!-- Node3 -->
<g id="node3" class="node">
<title>Node3</title>
<g id="a_node3"><a xlink:href="../../d2/d3b/namespaceqr__algorithm.html#ab1ac74497ffb2101040cc1efe3546de8" target="_top" xlink:title=" ">
<polygon fill="white" stroke="black" points="135,-57.5 135,-76.5 275,-76.5 275,-57.5 135,-57.5"/>
<text text-anchor="middle" x="205" y="-64.5" font-family="Helvetica,sans-Serif" font-size="10.00">qr_algorithm::qr_decompose</text>
</a>
</g>
</g>
<!-- Node1&#45;&gt;Node3 -->
<g id="edge2" class="edge">
<title>Node1&#45;&gt;Node3</title>
<path fill="none" stroke="midnightblue" d="M99.07,-79.99C107.36,-78.96 116.17,-77.87 125.02,-76.78"/>
<polygon fill="midnightblue" stroke="midnightblue" points="125.5,-80.24 135,-75.54 124.64,-73.3 125.5,-80.24"/>
</g>
<!-- Node4 -->
<g id="node4" class="node">
<title>Node4</title>
<g id="a_node4"><a xlink:href="../../df/d66/vector__cross__product_8cpp.html#a86cece59df22a931d4904acdace0d288" target="_top" xlink:title="Calculates the magnitude of the mathematical vector from it&#39;s direction ratios.">
<polygon fill="white" stroke="black" points="357,-114.5 357,-133.5 392,-133.5 392,-114.5 357,-114.5"/>
<text text-anchor="middle" x="374.5" y="-121.5" font-family="Helvetica,sans-Serif" font-size="10.00">mag</text>
</a>
</g>
</g>
<!-- Node3&#45;&gt;Node4 -->
<g id="edge3" class="edge">
<title>Node3&#45;&gt;Node4</title>
<path fill="none" stroke="midnightblue" d="M246.26,-76.5C255.81,-79.19 265.87,-82.39 275,-86 291.82,-92.66 294.27,-98.12 311,-105 322.56,-109.76 335.76,-113.94 347.04,-117.16"/>
<polygon fill="midnightblue" stroke="midnightblue" points="346.18,-120.56 356.75,-119.84 348.04,-113.81 346.18,-120.56"/>
</g>
<!-- Node5 -->
<g id="node5" class="node">
<title>Node5</title>
<g id="a_node5"><a xlink:href="../../d8/d77/namespacemachine__learning.html#a5305cc18d11943d3dc0d66e70d7e9c44" target="_top" xlink:title=" ">
<polygon fill="white" stroke="black" points="316,-76.5 316,-95.5 433,-95.5 433,-76.5 316,-76.5"/>
<text text-anchor="middle" x="374.5" y="-83.5" font-family="Helvetica,sans-Serif" font-size="10.00">machine_learning::sum</text>
</a>
</g>
</g>
<!-- Node3&#45;&gt;Node5 -->
<g id="edge4" class="edge">
<title>Node3&#45;&gt;Node5</title>
<path fill="none" stroke="midnightblue" d="M275.1,-74.84C285.23,-75.99 295.67,-77.17 305.78,-78.32"/>
<polygon fill="midnightblue" stroke="midnightblue" points="305.43,-81.8 315.76,-79.45 306.22,-74.85 305.43,-81.8"/>
</g>
<!-- Node6 -->
<g id="node6" class="node">
<title>Node6</title>
<g id="a_node6"><a xlink:href="../../d2/d3b/namespaceqr__algorithm.html#ad16da2183db22378435042f26af43d5f" target="_top" xlink:title=" ">
<polygon fill="white" stroke="black" points="311,-38.5 311,-57.5 438,-57.5 438,-38.5 311,-38.5"/>
<text text-anchor="middle" x="374.5" y="-45.5" font-family="Helvetica,sans-Serif" font-size="10.00">qr_algorithm::vector_mag</text>
</a>
</g>
</g>
<!-- Node3&#45;&gt;Node6 -->
<g id="edge5" class="edge">
<title>Node3&#45;&gt;Node6</title>
<path fill="none" stroke="midnightblue" d="M275.1,-59.16C283.49,-58.21 292.08,-57.24 300.53,-56.28"/>
<polygon fill="midnightblue" stroke="midnightblue" points="301.19,-59.72 310.74,-55.12 300.41,-52.77 301.19,-59.72"/>
</g>
<!-- Node9 -->
<g id="node9" class="node">
<title>Node9</title>
<g id="a_node9"><a xlink:href="../../d2/d3b/namespaceqr__algorithm.html#a5422c76bfa322620de611083bd518d71" target="_top" xlink:title=" ">
<polygon fill="white" stroke="black" points="312.5,-0.5 312.5,-19.5 436.5,-19.5 436.5,-0.5 312.5,-0.5"/>
<text text-anchor="middle" x="374.5" y="-7.5" font-family="Helvetica,sans-Serif" font-size="10.00">qr_algorithm::vector_proj</text>
</a>
</g>
</g>
<!-- Node3&#45;&gt;Node9 -->
<g id="edge8" class="edge">
<title>Node3&#45;&gt;Node9</title>
<path fill="none" stroke="midnightblue" d="M231.33,-57.41C252.52,-49.5 283.59,-38.12 311,-29 317.51,-26.84 324.43,-24.63 331.2,-22.53"/>
<polygon fill="midnightblue" stroke="midnightblue" points="332.42,-25.82 340.96,-19.54 330.37,-19.13 332.42,-25.82"/>
</g>
<!-- Node7 -->
<g id="node7" class="node">
<title>Node7</title>
<g id="a_node7"><a target="_blank" xlink:href="http://en.cppreference.com/w/cpp/numeric/math/sqrt.html#" target="_top" xlink:title=" ">
<polygon fill="white" stroke="black" points="508.5,-38.5 508.5,-57.5 561.5,-57.5 561.5,-38.5 508.5,-38.5"/>
<text text-anchor="middle" x="535" y="-45.5" font-family="Helvetica,sans-Serif" font-size="10.00">std::sqrt</text>
</a>
</g>
</g>
<!-- Node6&#45;&gt;Node7 -->
<g id="edge6" class="edge">
<title>Node6&#45;&gt;Node7</title>
<path fill="none" stroke="midnightblue" d="M438.14,-48C458.35,-48 480.07,-48 497.71,-48"/>
<polygon fill="midnightblue" stroke="midnightblue" points="498.12,-51.5 508.12,-48 498.12,-44.5 498.12,-51.5"/>
</g>
<!-- Node8 -->
<g id="node8" class="node">
<title>Node8</title>
<g id="a_node8"><a xlink:href="../../d2/d3b/namespaceqr__algorithm.html#a8ea313a1a1b5f9d0e3e332c29c6446ec" target="_top" xlink:title=" ">
<polygon fill="white" stroke="black" points="474,-0.5 474,-19.5 596,-19.5 596,-0.5 474,-0.5"/>
<text text-anchor="middle" x="535" y="-7.5" font-family="Helvetica,sans-Serif" font-size="10.00">qr_algorithm::vector_dot</text>
</a>
</g>
</g>
<!-- Node6&#45;&gt;Node8 -->
<g id="edge7" class="edge">
<title>Node6&#45;&gt;Node8</title>
<path fill="none" stroke="midnightblue" d="M415.5,-38.41C436.41,-33.4 462.21,-27.21 484.39,-21.89"/>
<polygon fill="midnightblue" stroke="midnightblue" points="485.38,-25.26 494.29,-19.52 483.75,-18.45 485.38,-25.26"/>
</g>
<!-- Node9&#45;&gt;Node8 -->
<g id="edge9" class="edge">
<title>Node9&#45;&gt;Node8</title>
<path fill="none" stroke="midnightblue" d="M436.78,-10C445.64,-10 454.82,-10 463.84,-10"/>
<polygon fill="midnightblue" stroke="midnightblue" points="463.93,-13.5 473.93,-10 463.93,-6.5 463.93,-13.5"/>
</g>
</g>
</svg>
