<?xml version="1.0" encoding="UTF-8" standalone="no"?>
<!DOCTYPE svg PUBLIC "-//W3C//DTD SVG 1.1//EN"
 "http://www.w3.org/Graphics/SVG/1.1/DTD/svg11.dtd">
<!-- Generated by graphviz version 2.44.1 (20200629.0846)
 -->
<!-- Title: main Pages: 1 -->
<svg width="136pt" height="104pt"
 viewBox="0.00 0.00 136.00 104.00" xmlns="http://www.w3.org/2000/svg" xmlns:xlink="http://www.w3.org/1999/xlink">
<g id="graph0" class="graph" transform="scale(1 1) rotate(0) translate(4 100)">
<title>main</title>
<polygon fill="white" stroke="transparent" points="-4,4 -4,-100 132,-100 132,4 -4,4"/>
<!-- Node1 -->
<g id="node1" class="node">
<title>Node1</title>
<g id="a_node1"><a xlink:title="Main Function.">
<polygon fill="#bfbfbf" stroke="black" points="0,-38.5 0,-57.5 38,-57.5 38,-38.5 0,-38.5"/>
<text text-anchor="middle" x="19" y="-45.5" font-family="Helvetica,sans-Serif" font-size="10.00">main</text>
</a>
</g>
</g>
<!-- Node2 -->
<g id="node2" class="node">
<title>Node2</title>
<g id="a_node2"><a xlink:href="../../df/d66/vector__cross__product_8cpp.html#ad0f10412c9ad2c589b2ce005c44acb2b" target="_top" xlink:title="Function to calculate the cross product of the passed arrays containing the direction ratios of the t...">
<polygon fill="white" stroke="black" points="80.5,-76.5 80.5,-95.5 121.5,-95.5 121.5,-76.5 80.5,-76.5"/>
<text text-anchor="middle" x="101" y="-83.5" font-family="Helvetica,sans-Serif" font-size="10.00">cross</text>
</a>
</g>
</g>
<!-- Node1&#45;&gt;Node2 -->
<g id="edge1" class="edge">
<title>Node1&#45;&gt;Node2</title>
<path fill="none" stroke="midnightblue" d="M38.15,-56.62C47.85,-61.23 60.02,-67.01 70.99,-72.22"/>
<polygon fill="midnightblue" stroke="midnightblue" points="69.7,-75.48 80.24,-76.61 72.71,-69.16 69.7,-75.48"/>
</g>
<!-- Node3 -->
<g id="node3" class="node">
<title>Node3</title>
<g id="a_node3"><a target="_blank" xlink:href="http://en.cppreference.com/w/cpp/io/manip/endl.html#" target="_top" xlink:title=" ">
<polygon fill="white" stroke="black" points="74,-38.5 74,-57.5 128,-57.5 128,-38.5 74,-38.5"/>
<text text-anchor="middle" x="101" y="-45.5" font-family="Helvetica,sans-Serif" font-size="10.00">std::endl</text>
</a>
</g>
</g>
<!-- Node1&#45;&gt;Node3 -->
<g id="edge2" class="edge">
<title>Node1&#45;&gt;Node3</title>
<path fill="none" stroke="midnightblue" d="M38.15,-48C45.71,-48 54.76,-48 63.58,-48"/>
<polygon fill="midnightblue" stroke="midnightblue" points="63.73,-51.5 73.73,-48 63.73,-44.5 63.73,-51.5"/>
</g>
<!-- Node4 -->
<g id="node4" class="node">
<title>Node4</title>
<g id="a_node4"><a xlink:href="../../df/d66/vector__cross__product_8cpp.html#a86cece59df22a931d4904acdace0d288" target="_top" xlink:title="Calculates the magnitude of the mathematical vector from it&#39;s direction ratios.">
<polygon fill="white" stroke="black" points="83.5,-0.5 83.5,-19.5 118.5,-19.5 118.5,-0.5 83.5,-0.5"/>
<text text-anchor="middle" x="101" y="-7.5" font-family="Helvetica,sans-Serif" font-size="10.00">mag</text>
</a>
</g>
</g>
<!-- Node1&#45;&gt;Node4 -->
<g id="edge3" class="edge">
<title>Node1&#45;&gt;Node4</title>
<path fill="none" stroke="midnightblue" d="M38.15,-39.38C48.74,-34.35 62.28,-27.92 73.98,-22.36"/>
<polygon fill="midnightblue" stroke="midnightblue" points="75.75,-25.39 83.28,-17.94 72.75,-19.07 75.75,-25.39"/>
</g>
</g>
</svg>
