<?xml version="1.0" encoding="UTF-8" standalone="no"?>
<!DOCTYPE svg PUBLIC "-//W3C//DTD SVG 1.1//EN"
 "http://www.w3.org/Graphics/SVG/1.1/DTD/svg11.dtd">
<!-- Generated by graphviz version 2.44.1 (20200629.0846)
 -->
<!-- Title: test1 Pages: 1 -->
<svg width="678pt" height="142pt"
 viewBox="0.00 0.00 678.00 142.00" xmlns="http://www.w3.org/2000/svg" xmlns:xlink="http://www.w3.org/1999/xlink">
<g id="graph0" class="graph" transform="scale(1 1) rotate(0) translate(4 138)">
<title>test1</title>
<polygon fill="white" stroke="transparent" points="-4,4 -4,-138 674,-138 674,4 -4,4"/>
<!-- Node1 -->
<g id="node1" class="node">
<title>Node1</title>
<g id="a_node1"><a xlink:title=" ">
<polygon fill="#bfbfbf" stroke="black" points="0,-54.5 0,-73.5 38,-73.5 38,-54.5 0,-54.5"/>
<text text-anchor="middle" x="19" y="-61.5" font-family="Helvetica,sans-Serif" font-size="10.00">test1</text>
</a>
</g>
</g>
<!-- Node2 -->
<g id="node2" class="node">
<title>Node2</title>
<g id="a_node2"><a xlink:href="../../d2/d3b/namespaceqr__algorithm.html#a763896dbb4a7e95c4a1e614ac0819d66" target="_top" xlink:title=" ">
<polygon fill="white" stroke="black" points="74,-71 74,-101 173,-101 173,-71 74,-71"/>
<text text-anchor="start" x="82" y="-89" font-family="Helvetica,sans-Serif" font-size="10.00">qr_algorithm::eigen</text>
<text text-anchor="middle" x="123.5" y="-78" font-family="Helvetica,sans-Serif" font-size="10.00">_values</text>
</a>
</g>
</g>
<!-- Node1&#45;&gt;Node2 -->
<g id="edge1" class="edge">
<title>Node1&#45;&gt;Node2</title>
<path fill="none" stroke="midnightblue" d="M38.32,-67.93C45.76,-69.53 54.8,-71.47 64.16,-73.48"/>
<polygon fill="midnightblue" stroke="midnightblue" points="63.47,-76.91 73.98,-75.59 64.94,-70.07 63.47,-76.91"/>
</g>
<!-- Node11 -->
<g id="node11" class="node">
<title>Node11</title>
<g id="a_node11"><a target="_blank" xlink:href="http://en.cppreference.com/w/cpp/io/manip/endl.html#" target="_top" xlink:title=" ">
<polygon fill="white" stroke="black" points="96.5,-32.5 96.5,-51.5 150.5,-51.5 150.5,-32.5 96.5,-32.5"/>
<text text-anchor="middle" x="123.5" y="-39.5" font-family="Helvetica,sans-Serif" font-size="10.00">std::endl</text>
</a>
</g>
</g>
<!-- Node1&#45;&gt;Node11 -->
<g id="edge11" class="edge">
<title>Node1&#45;&gt;Node11</title>
<path fill="none" stroke="midnightblue" d="M38.32,-60.07C51.55,-57.23 69.85,-53.3 86.01,-49.83"/>
<polygon fill="midnightblue" stroke="midnightblue" points="87.2,-53.16 96.25,-47.64 85.73,-46.31 87.2,-53.16"/>
</g>
<!-- Node3 -->
<g id="node3" class="node">
<title>Node3</title>
<g id="a_node3"><a xlink:href="../../de/d75/qr__eigen__values_8cpp.html#a7558fd7779bf207157ced66f275951a0" target="_top" xlink:title=" ">
<polygon fill="white" stroke="black" points="252,-95.5 252,-114.5 306,-114.5 306,-95.5 252,-95.5"/>
<text text-anchor="middle" x="279" y="-102.5" font-family="Helvetica,sans-Serif" font-size="10.00">mat_mul</text>
</a>
</g>
</g>
<!-- Node2&#45;&gt;Node3 -->
<g id="edge2" class="edge">
<title>Node2&#45;&gt;Node3</title>
<path fill="none" stroke="midnightblue" d="M173.07,-92.01C195.21,-94.75 220.98,-97.94 241.44,-100.48"/>
<polygon fill="midnightblue" stroke="midnightblue" points="241.26,-103.98 251.61,-101.73 242.12,-97.03 241.26,-103.98"/>
</g>
<!-- Node4 -->
<g id="node4" class="node">
<title>Node4</title>
<g id="a_node4"><a xlink:href="../../d2/d3b/namespaceqr__algorithm.html#ab1ac74497ffb2101040cc1efe3546de8" target="_top" xlink:title=" ">
<polygon fill="white" stroke="black" points="209,-57.5 209,-76.5 349,-76.5 349,-57.5 209,-57.5"/>
<text text-anchor="middle" x="279" y="-64.5" font-family="Helvetica,sans-Serif" font-size="10.00">qr_algorithm::qr_decompose</text>
</a>
</g>
</g>
<!-- Node2&#45;&gt;Node4 -->
<g id="edge3" class="edge">
<title>Node2&#45;&gt;Node4</title>
<path fill="none" stroke="midnightblue" d="M173.07,-79.99C181.36,-78.96 190.17,-77.87 199.02,-76.78"/>
<polygon fill="midnightblue" stroke="midnightblue" points="199.5,-80.24 209,-75.54 198.64,-73.3 199.5,-80.24"/>
</g>
<!-- Node5 -->
<g id="node5" class="node">
<title>Node5</title>
<g id="a_node5"><a xlink:href="../../df/d66/vector__cross__product_8cpp.html#a86cece59df22a931d4904acdace0d288" target="_top" xlink:title="Calculates the magnitude of the mathematical vector from it&#39;s direction ratios.">
<polygon fill="white" stroke="black" points="431,-114.5 431,-133.5 466,-133.5 466,-114.5 431,-114.5"/>
<text text-anchor="middle" x="448.5" y="-121.5" font-family="Helvetica,sans-Serif" font-size="10.00">mag</text>
</a>
</g>
</g>
<!-- Node4&#45;&gt;Node5 -->
<g id="edge4" class="edge">
<title>Node4&#45;&gt;Node5</title>
<path fill="none" stroke="midnightblue" d="M320.26,-76.5C329.81,-79.19 339.87,-82.39 349,-86 365.82,-92.66 368.27,-98.12 385,-105 396.56,-109.76 409.76,-113.94 421.04,-117.16"/>
<polygon fill="midnightblue" stroke="midnightblue" points="420.18,-120.56 430.75,-119.84 422.04,-113.81 420.18,-120.56"/>
</g>
<!-- Node6 -->
<g id="node6" class="node">
<title>Node6</title>
<g id="a_node6"><a xlink:href="../../d8/d77/namespacemachine__learning.html#a5305cc18d11943d3dc0d66e70d7e9c44" target="_top" xlink:title=" ">
<polygon fill="white" stroke="black" points="390,-76.5 390,-95.5 507,-95.5 507,-76.5 390,-76.5"/>
<text text-anchor="middle" x="448.5" y="-83.5" font-family="Helvetica,sans-Serif" font-size="10.00">machine_learning::sum</text>
</a>
</g>
</g>
<!-- Node4&#45;&gt;Node6 -->
<g id="edge5" class="edge">
<title>Node4&#45;&gt;Node6</title>
<path fill="none" stroke="midnightblue" d="M349.1,-74.84C359.23,-75.99 369.67,-77.17 379.78,-78.32"/>
<polygon fill="midnightblue" stroke="midnightblue" points="379.43,-81.8 389.76,-79.45 380.22,-74.85 379.43,-81.8"/>
</g>
<!-- Node7 -->
<g id="node7" class="node">
<title>Node7</title>
<g id="a_node7"><a xlink:href="../../d2/d3b/namespaceqr__algorithm.html#ad16da2183db22378435042f26af43d5f" target="_top" xlink:title=" ">
<polygon fill="white" stroke="black" points="385,-38.5 385,-57.5 512,-57.5 512,-38.5 385,-38.5"/>
<text text-anchor="middle" x="448.5" y="-45.5" font-family="Helvetica,sans-Serif" font-size="10.00">qr_algorithm::vector_mag</text>
</a>
</g>
</g>
<!-- Node4&#45;&gt;Node7 -->
<g id="edge6" class="edge">
<title>Node4&#45;&gt;Node7</title>
<path fill="none" stroke="midnightblue" d="M349.1,-59.16C357.49,-58.21 366.08,-57.24 374.53,-56.28"/>
<polygon fill="midnightblue" stroke="midnightblue" points="375.19,-59.72 384.74,-55.12 374.41,-52.77 375.19,-59.72"/>
</g>
<!-- Node10 -->
<g id="node10" class="node">
<title>Node10</title>
<g id="a_node10"><a xlink:href="../../d2/d3b/namespaceqr__algorithm.html#a5422c76bfa322620de611083bd518d71" target="_top" xlink:title=" ">
<polygon fill="white" stroke="black" points="386.5,-0.5 386.5,-19.5 510.5,-19.5 510.5,-0.5 386.5,-0.5"/>
<text text-anchor="middle" x="448.5" y="-7.5" font-family="Helvetica,sans-Serif" font-size="10.00">qr_algorithm::vector_proj</text>
</a>
</g>
</g>
<!-- Node4&#45;&gt;Node10 -->
<g id="edge9" class="edge">
<title>Node4&#45;&gt;Node10</title>
<path fill="none" stroke="midnightblue" d="M305.33,-57.41C326.52,-49.5 357.59,-38.12 385,-29 391.51,-26.84 398.43,-24.63 405.2,-22.53"/>
<polygon fill="midnightblue" stroke="midnightblue" points="406.42,-25.82 414.96,-19.54 404.37,-19.13 406.42,-25.82"/>
</g>
<!-- Node8 -->
<g id="node8" class="node">
<title>Node8</title>
<g id="a_node8"><a target="_blank" xlink:href="http://en.cppreference.com/w/cpp/numeric/math/sqrt.html#" target="_top" xlink:title=" ">
<polygon fill="white" stroke="black" points="582.5,-38.5 582.5,-57.5 635.5,-57.5 635.5,-38.5 582.5,-38.5"/>
<text text-anchor="middle" x="609" y="-45.5" font-family="Helvetica,sans-Serif" font-size="10.00">std::sqrt</text>
</a>
</g>
</g>
<!-- Node7&#45;&gt;Node8 -->
<g id="edge7" class="edge">
<title>Node7&#45;&gt;Node8</title>
<path fill="none" stroke="midnightblue" d="M512.14,-48C532.35,-48 554.07,-48 571.71,-48"/>
<polygon fill="midnightblue" stroke="midnightblue" points="572.12,-51.5 582.12,-48 572.12,-44.5 572.12,-51.5"/>
</g>
<!-- Node9 -->
<g id="node9" class="node">
<title>Node9</title>
<g id="a_node9"><a xlink:href="../../d2/d3b/namespaceqr__algorithm.html#a8ea313a1a1b5f9d0e3e332c29c6446ec" target="_top" xlink:title=" ">
<polygon fill="white" stroke="black" points="548,-0.5 548,-19.5 670,-19.5 670,-0.5 548,-0.5"/>
<text text-anchor="middle" x="609" y="-7.5" font-family="Helvetica,sans-Serif" font-size="10.00">qr_algorithm::vector_dot</text>
</a>
</g>
</g>
<!-- Node7&#45;&gt;Node9 -->
<g id="edge8" class="edge">
<title>Node7&#45;&gt;Node9</title>
<path fill="none" stroke="midnightblue" d="M489.5,-38.41C510.41,-33.4 536.21,-27.21 558.39,-21.89"/>
<polygon fill="midnightblue" stroke="midnightblue" points="559.38,-25.26 568.29,-19.52 557.75,-18.45 559.38,-25.26"/>
</g>
<!-- Node10&#45;&gt;Node9 -->
<g id="edge10" class="edge">
<title>Node10&#45;&gt;Node9</title>
<path fill="none" stroke="midnightblue" d="M510.78,-10C519.64,-10 528.82,-10 537.84,-10"/>
<polygon fill="midnightblue" stroke="midnightblue" points="537.93,-13.5 547.93,-10 537.93,-6.5 537.93,-13.5"/>
</g>
</g>
</svg>
